HIERARCHY
ROOT Pelvis
{
	OFFSET 0.000000 0.000000 0.000000
	CHANNELS 6 Xposition Yposition Zposition Zrotation Yrotation Xrotation 
	JOINT Left_hip
	{
		OFFSET 0.070241 -0.085575 -0.010474
		CHANNELS 3 Zrotation Yrotation Xrotation
		JOINT Left_knee
		{
			OFFSET 0.032125 -0.356873 -0.000555
			CHANNELS 3 Zrotation Yrotation Xrotation
			JOINT Left_ankle
			{
				OFFSET -0.010961 -0.370212 -0.042278
				CHANNELS 3 Zrotation Yrotation Xrotation
				JOINT Left_foot
				{
					OFFSET 0.023322 -0.052281 0.110104
					CHANNELS 3 Zrotation Yrotation Xrotation
					End Site
					{
						OFFSET 0.000000 0.000000 0.000000
					}
				}
			}
		}
	}
	JOINT Right_hip
	{
		OFFSET -0.068518 -0.084320 -0.007402
		CHANNELS 3 Zrotation Yrotation Xrotation
		JOINT Right_knee
		{
			OFFSET -0.037345 -0.364815 -0.003619
			CHANNELS 3 Zrotation Yrotation Xrotation
			JOINT Right_ankle
			{
				OFFSET 0.013394 -0.370006 -0.039954
				CHANNELS 3 Zrotation Yrotation Xrotation
				JOINT Right_foot
				{
					OFFSET -0.019600 -0.045455 0.113223
					CHANNELS 3 Zrotation Yrotation Xrotation
					End Site
					{
						OFFSET 0.000000 0.000000 0.000000
					}
				}
			}
		}
	}
	JOINT Spine1
	{
		OFFSET -0.002404 0.098129 -0.018169
		CHANNELS 3 Zrotation Yrotation Xrotation
		JOINT Spine2
		{
			OFFSET 0.003989 0.127209 -0.001742
			CHANNELS 3 Zrotation Yrotation Xrotation
			JOINT Spine3
			{
				OFFSET 0.001758 0.046641 0.023475
				CHANNELS 3 Zrotation Yrotation Xrotation
				JOINT Neck
				{
					OFFSET -0.003759 0.194901 -0.039982
					CHANNELS 3 Zrotation Yrotation Xrotation
					JOINT Head
					{
						OFFSET 0.003999 0.063756 0.047665
						CHANNELS 3 Zrotation Yrotation Xrotation
						End Site
						{
							OFFSET 0.000000 0.000000 0.000000
						}
					}
				}
				JOINT Left_collar
				{
					OFFSET 0.071816 0.109048 -0.028973
					CHANNELS 3 Zrotation Yrotation Xrotation
					JOINT Left_shoulder
					{
						OFFSET 0.084027 0.032269 -0.006525
						CHANNELS 3 Zrotation Yrotation Xrotation
						JOINT Left_elbow
						{
							OFFSET 0.243854 -0.013992 -0.025905
							CHANNELS 3 Zrotation Yrotation Xrotation
							JOINT Left_wrist
							{
								OFFSET 0.232156 0.008196 -0.000339
								CHANNELS 3 Zrotation Yrotation Xrotation
								JOINT Left_palm
								{
									OFFSET 0.075377 -0.009461 -0.012494
									CHANNELS 3 Zrotation Yrotation Xrotation
									End Site
									{
										OFFSET 0.000000 0.000000 0.000000
									}
								}
							}
						}
					}
				}
				JOINT Right_collar
				{
					OFFSET -0.073768 0.107001 -0.033755
					CHANNELS 3 Zrotation Yrotation Xrotation
					JOINT Right_shoulder
					{
						OFFSET -0.086837 0.032868 -0.009431
						CHANNELS 3 Zrotation Yrotation Xrotation
						JOINT Right_elbow
						{
							OFFSET -0.236446 -0.012544 -0.018747
							CHANNELS 3 Zrotation Yrotation Xrotation
							JOINT Right_wrist
							{
								OFFSET -0.236110 0.006124 -0.004327
								CHANNELS 3 Zrotation Yrotation Xrotation
								JOINT Right_palm
								{
									OFFSET -0.074800 -0.006875 -0.009610
									CHANNELS 3 Zrotation Yrotation Xrotation
									End Site
									{
										OFFSET 0.000000 0.000000 0.000000
									}
								}
							}
						}
					}
				}
			}
		}
	}
}
MOTION
Frames: 9
Frame Time: 0.100000
0.629703 0.024569 0.017567 2.522130 2.177466 -172.547043 -3.139430 -3.079830 1.308168 -3.294448 -7.955383 1.829305 4.100571 11.973200 -0.330888 7.304228 6.970192 -4.601428 -2.536181 3.883420 -5.560258 7.860177 6.743223 53.032143 12.622045 -1.510288 5.747925 -11.793924 -1.479446 -8.516971 -0.850822 1.193557 0.918184 -0.890390 -2.689913 2.122433 -1.848938 1.298939 -2.566484 -2.302712 -15.301696 -1.447957 9.596824 -5.634153 -4.424418 -22.671052 -9.837804 -5.015641 -50.266991 4.281258 21.437567 5.241415 -14.013098 7.896487 -5.759798 -12.630099 2.221665 -10.413072 -5.432139 -4.240208 13.788315 12.455219 -4.111648 36.462724 -3.343852 18.563832 72.157314 81.508061 72.808597 3.069532 26.851535 -28.309867 14.876340 -0.116203 2.081943 
0.635756 0.031239 -0.027568 2.741037 -0.280721 -172.728067 -2.853692 -1.223007 6.849019 -2.459253 -12.342320 -1.405928 1.700556 11.802094 -1.860451 7.325373 7.866443 -4.674111 -1.161969 3.267895 -13.656618 5.268902 2.427531 45.981456 6.181491 -7.691997 -8.416861 -9.498691 -0.809926 -1.899047 -0.769948 -1.177747 2.870735 -1.153595 -2.734580 1.006813 -1.087639 0.457863 -2.181312 -1.745331 -14.905508 -2.300205 11.037062 -4.877451 -3.905954 -22.140595 -11.592034 -4.545486 -49.998881 0.332395 21.694115 4.818221 -17.369829 8.026429 -5.190750 -10.847398 4.341717 -11.655481 -6.502365 -6.577521 13.078886 12.942820 -4.318759 36.365919 -4.229403 17.695526 77.812879 81.812893 79.038362 2.288701 25.799124 -29.212377 15.943154 1.150662 1.875104 
0.637562 0.042490 -0.072977 2.095702 -1.517524 -171.904898 -3.555535 -0.331642 10.258628 -1.484554 -13.243142 -2.695233 0.009495 10.864911 -4.157093 6.130405 8.112642 -3.867159 -0.593538 2.088521 -16.667454 1.228218 0.065219 20.556882 5.628561 -11.810474 -2.684933 -10.106244 -0.691417 -0.171410 -1.255409 -1.752114 3.885762 -1.321933 -2.649011 0.464689 -0.669496 0.312716 -1.858111 -1.082135 -15.257689 -4.143633 12.754977 -4.657626 -4.384590 -22.452830 -12.293444 -4.119607 -50.795008 -1.692915 22.984883 5.158819 -22.462884 6.015957 -4.492644 -11.292291 2.554995 -11.059211 -6.127566 -6.935737 12.097324 12.469747 -4.281931 36.211495 -5.174852 16.560231 94.674406 82.052127 95.428443 2.830212 24.675620 -28.140956 15.560073 2.236206 0.988341 
0.636399 0.058487 -0.122222 0.999852 -1.636857 -170.368652 -4.647107 0.155138 12.328916 -1.080877 -13.100088 -2.201422 -0.460555 9.828096 -7.092025 4.036655 8.866662 -2.588702 -0.295997 1.331999 -18.286147 -0.487872 -1.265121 0.055338 4.709055 -12.817700 -0.010902 -8.776665 -0.975884 1.859137 -1.572681 -1.803173 3.534956 -1.693665 -2.462263 0.787370 -0.692561 0.371055 -2.300843 0.290696 -16.187531 -5.645853 14.541417 -4.862012 -5.125143 -23.946563 -12.403642 -3.365841 -51.117391 -1.001511 24.623329 4.153735 -26.057482 4.240933 -6.030634 -11.911352 -0.405148 -10.341910 -5.763426 -7.829048 11.904012 12.200354 -3.627077 35.219853 -5.943447 15.707429 111.056119 81.414615 110.580609 4.071824 24.221644 -27.464594 15.055348 2.665976 -0.218329 
0.628923 0.076862 -0.181915 -0.108727 -3.874452 -169.868834 -4.401271 0.415871 14.793647 -1.352935 -14.453828 0.631281 -0.288792 9.109893 -9.269286 2.921966 9.749288 -3.436674 -0.524981 1.462262 -18.652222 -0.285027 -1.003893 0.009856 4.239933 -12.593001 -2.275009 -8.442194 -1.379958 2.559931 -1.570226 -2.718321 2.818271 -1.315308 -2.977002 0.907188 -0.616931 -0.200327 -1.986521 0.190547 -17.679408 -5.505863 15.034730 -5.324540 -6.475031 -23.351629 -12.748920 -2.713675 -52.574115 -0.581868 25.038626 1.938669 -27.804148 4.108890 -11.615157 -11.705262 -3.848638 -11.522931 -5.949022 -9.028979 10.772825 12.016143 -4.104316 35.083130 -6.211082 15.531537 116.905818 80.979114 116.288319 7.558489 24.227359 -28.453649 16.110346 2.577147 -0.834004 
0.615377 0.087781 -0.258126 0.297828 -6.705642 -168.383431 -2.183377 -0.237138 14.673868 -1.173449 -14.247621 6.270666 -1.882780 7.566580 -6.488008 4.218208 10.528569 -4.873315 0.844418 1.987500 -16.200470 0.289391 -2.587440 0.097993 0.792468 -11.458256 4.111092 -3.634832 -4.033883 2.476066 -0.472542 -3.146324 -0.955572 0.380844 -3.170561 1.758014 -0.692364 -0.927879 -3.630972 -0.056600 -18.075111 -2.699438 11.662272 -7.459156 -5.818664 -24.634984 -11.805404 -2.556957 -51.875648 -1.553131 28.033426 -0.504650 -30.530172 8.560395 -9.177158 -12.777312 -5.543196 -12.366337 -5.477393 -6.934746 12.113507 10.027880 -5.594744 32.569355 -7.254813 17.692241 115.632542 79.561409 115.475996 5.749677 23.697032 -29.127384 18.111147 2.687192 -0.148641 
0.598481 0.094074 -0.333332 1.461423 -6.969291 -168.902827 1.102070 -0.465882 11.269276 -3.615837 -13.209952 19.851563 -6.965137 4.835883 4.650093 6.507896 10.977774 -13.476678 3.228844 2.208111 -10.060978 1.567906 -1.495575 -1.477082 -0.521701 -10.993383 4.151208 -5.426468 -3.777571 2.171784 0.632826 -2.391697 -2.268552 1.079562 -3.649440 0.727730 -0.091514 -1.329792 -2.658251 -0.926517 -18.817563 -1.547898 10.078857 -9.704020 -5.553675 -23.097717 -11.783280 -2.019935 -54.312970 -2.517640 27.314588 -0.800915 -34.353467 7.554759 -6.346132 -14.451680 -11.601004 -15.279093 -5.591657 -5.038894 11.347163 10.317472 -6.339465 33.943882 -8.566014 18.344628 117.185856 79.754489 117.493880 3.834985 23.525445 -31.174767 20.353823 3.084186 -0.090094 
0.581370 0.102830 -0.387224 2.521978 -6.666365 -170.943042 5.047958 -0.229674 0.339580 -6.865068 -6.978527 42.673379 -14.479258 4.957128 21.772331 12.477259 11.659920 -24.124825 5.990504 1.802519 -3.764504 2.363459 0.127344 -1.621801 -2.524741 -11.188687 1.328762 -10.359705 -3.094073 0.405243 2.020169 -0.458960 0.434698 0.380868 -4.098812 0.626349 0.317870 -1.319666 -2.201340 -0.664618 -20.111004 -1.980225 10.514340 -12.379949 -7.782070 -23.295823 -11.491905 -1.527134 -54.386429 -4.690175 25.811500 0.351532 -38.191590 9.194494 -4.826439 -16.147185 -10.363491 -18.479905 -7.014586 -4.129378 10.868700 10.927341 -6.778734 34.841414 -9.716314 17.808902 130.852487 79.970885 132.254333 2.995472 24.286246 -31.211073 22.471908 4.755081 -0.788837 
0.568593 0.108986 -0.431859 2.396020 -4.112151 -172.498110 5.909492 -1.090173 -10.378999 -6.010080 -0.568853 55.964746 -10.818353 7.833393 15.481180 13.027442 10.921421 -22.089761 6.926922 1.884542 1.160483 1.984351 2.402686 -0.798002 -2.524617 -10.836809 -1.707349 -10.318488 -3.019484 0.336124 1.709076 1.991869 2.935327 -0.087484 -4.221543 1.903227 0.098680 -0.764815 -2.415413 0.366647 -20.755309 -2.132714 10.777705 -13.586748 -9.193313 -24.295250 -10.034151 -1.709013 -53.482146 -4.372293 24.717683 1.880515 -38.683018 12.742870 -3.785232 -15.182056 -2.980949 -17.376008 -7.018185 -4.785751 11.321050 10.941747 -6.305186 34.134895 -8.801588 16.793157 135.055724 78.811197 138.027079 1.417667 24.299836 -29.851724 22.132263 4.510606 -0.239420 
